<svg xmlns="http://www.w3.org/2000/svg" width="58.018" height="48" viewBox="0 0 58.018 48">
  <g id="a_a-logo-color" data-name="a&amp;a-logo-color" transform="translate(-2.772 -5.51)">
    <g id="Grupo_344" data-name="Grupo 344" transform="translate(2.772 5.51)">
      <path id="Trazado_124" data-name="Trazado 124" d="M95.735,154.593a2.68,2.68,0,0,1,.269-1.2,3.136,3.136,0,0,1,.626-.856c-.013-.027-.025-.052-.035-.077a2.942,2.942,0,0,1-.259-1.2,3.273,3.273,0,0,1,.081-.722l-.071-.234L95.1,146.27c-.242.056-.484.117-.726.167-.7.134-1.359.236-2,.311l-3.53,9.678h7.484c-.05-.069-.1-.136-.15-.209A3.027,3.027,0,0,1,95.735,154.593Z" transform="translate(-70.88 -116.885)" fill="#0d1b2a"/>
      <g id="Grupo_341" data-name="Grupo 341" transform="translate(29.608 0.002)">
        <path id="Trazado_125" data-name="Trazado 125" d="M163.349,22.839,157,5.52h-9.613L144.6,13.146l4.323,11.791c.38-.115.779-.232,1.19-.349l2.073-6.766,1.8,5.822c.887-.182,1.806-.344,2.749-.482A32.748,32.748,0,0,1,163.349,22.839Z" transform="translate(-144.6 -5.52)" fill="#fff"/>
        <path id="Trazado_126" data-name="Trazado 126" d="M206.272,106.23a39.04,39.04,0,0,0-6.91,1.511c-.726.217-1.47.455-2.232.708l.478,1.551,2.526,8.2,2.01,6.545h10.918Z" transform="translate(-186.164 -85.206)" fill="#fff"/>
      </g>
      <g id="Grupo_342" data-name="Grupo 342" transform="translate(0 12.828)">
        <path id="Trazado_127" data-name="Trazado 127" d="M24.96,77.7a19.085,19.085,0,0,1-3.482.53,14.925,14.925,0,0,1-1.862.01c-.505-.027-1.025-.073-1.57-.148a14.366,14.366,0,0,1-1.681-.355,13.116,13.116,0,0,1-1.649-.539A17.549,17.549,0,0,1,10.8,75.041a23.942,23.942,0,0,1-2.213-1.812,33.556,33.556,0,0,1-5.117-6.1.384.384,0,0,0-.7.267,18.527,18.527,0,0,0,1.169,4.146,22.573,22.573,0,0,0,2.017,3.881,20.483,20.483,0,0,0,3.284,3.889,18.373,18.373,0,0,0,3.252,2.4,17.8,17.8,0,0,0,5.438,2.048,19.023,19.023,0,0,0,3.676.382c.086,0,.169,0,.255,0a20.3,20.3,0,0,0,2.4-.15c.639-.075,1.3-.177,2-.311.242-.05.484-.109.726-.167.466-.111.933-.23,1.4-.365l-1.814-5.883C26.035,77.433,25.495,77.579,24.96,77.7Z" transform="translate(-2.772 -66.957)" fill="#14b0e5"/>
        <path id="Trazado_128" data-name="Trazado 128" d="M184.125,93.236a6.522,6.522,0,0,0-1.294-1.879,8.28,8.28,0,0,0-1.856-1.395,13.376,13.376,0,0,0-4.332-1.44c-.7-.113-1.409-.192-2.148-.24a32.707,32.707,0,0,0-6.613.321c-.944.138-1.86.3-2.749.482-.5.1-.99.207-1.463.321-.829.188-1.641.4-2.407.62-.411.117-.81.234-1.19.349l-.511.154c-.292.09-.582.184-.871.278l2.05,5.588.127-.052.635-.253c1.858-.724,3.58-1.349,5.211-1.889q1.143-.379,2.232-.708a39.19,39.19,0,0,1,6.91-1.511c.209-.023.415-.044.622-.063a13.477,13.477,0,0,1,3.7.146,7.028,7.028,0,0,1,3.346,1.6.383.383,0,0,0,.478.025A.371.371,0,0,0,184.125,93.236Z" transform="translate(-126.141 -83.789)" fill="#14b0e5"/>
      </g>
      <g id="Grupo_343" data-name="Grupo 343" transform="translate(1.238)">
        <path id="Trazado_129" data-name="Trazado 129" d="M13.938,126.14,8.7,140.5H19.591l2.01-6.545,1.025-3.367a17.817,17.817,0,0,1-5.438-2.048A18.552,18.552,0,0,1,13.938,126.14Z" transform="translate(-8.7 -100.957)" fill="#fff"/>
        <path id="Trazado_130" data-name="Trazado 130" d="M69,34.164l-1.179-3.215-.779-2.125-1.271-3.465-1.944-5.3-1.768-4.82L58.487,5.51H48.876L41.25,26.419a17.633,17.633,0,0,0,3.912,2.161,13.115,13.115,0,0,0,1.649.539,14.364,14.364,0,0,0,1.681.355c.547.075,1.065.123,1.57.148l3.62-11.812,1.937,6.273,1.409,4.561.065.211.447,1.447,1.3,4.227.925,3.006a2.955,2.955,0,0,1,.422-.28,3.26,3.26,0,0,1,1.547-.365,3.049,3.049,0,0,1,1.486.363,2.763,2.763,0,0,1,1.067,1.023c.035.058.061.121.09.18a2.734,2.734,0,0,1,.29,1.223,2.69,2.69,0,0,1-.132.829h.276a1.148,1.148,0,0,1,1.148,1.148,5.311,5.311,0,0,1-.382,2.077l.522.605a1.141,1.141,0,0,1,.276.712h6.611Z" transform="translate(-34.455 -5.51)" fill="#fff"/>
      </g>
      <path id="Trazado_131" data-name="Trazado 131" d="M133.311,168.352l-1.012-1.175a3.623,3.623,0,0,0,.626-2.219h-1.217a2.6,2.6,0,0,1-.282,1.207l-1.161-1.34.434-.311a1.891,1.891,0,0,0,.931-1.532,1.581,1.581,0,0,0-.221-.82,1.526,1.526,0,0,0-.326-.386,1.673,1.673,0,0,0-.3-.213,1.917,1.917,0,0,0-.935-.221,2.1,2.1,0,0,0-1.006.232,1.7,1.7,0,0,0-.33.232,1.68,1.68,0,0,0-.251.28,1.616,1.616,0,0,0-.092.14,1.942,1.942,0,0,0-.236.964,1.793,1.793,0,0,0,.161.733,4.451,4.451,0,0,0,.484.8,6.319,6.319,0,0,0-.681.547,1.631,1.631,0,0,0-.127.142,1.852,1.852,0,0,0-.288.415,1.551,1.551,0,0,0-.15.693,1.891,1.891,0,0,0,.278,1.021,1.857,1.857,0,0,0,.789.7,2,2,0,0,0,.276.111,2.916,2.916,0,0,0,.925.14,3.423,3.423,0,0,0,.939-.121.472.472,0,0,0,.05-.017,3.039,3.039,0,0,0,.781-.363l.315.363.033.038h1.628Zm-2.971-4.889a1.11,1.11,0,0,1-.378.349l-.353.23a3.04,3.04,0,0,1-.3-.47.9.9,0,0,1-.1-.4.7.7,0,0,1,.167-.48.667.667,0,0,1,.787-.1.568.568,0,0,1,.211.217.579.579,0,0,1,.071.278A.728.728,0,0,1,130.34,163.463Zm-.662,3.862a.943.943,0,0,1-.47-.115.816.816,0,0,1-.321-.319.925.925,0,0,1-.115-.463,1.074,1.074,0,0,1,.081-.42,1.164,1.164,0,0,1,.3-.4l.086-.063.123.142,1.209,1.386a1.806,1.806,0,0,1-.71.236C129.8,167.319,129.741,167.325,129.679,167.325Z" transform="translate(-101.327 -128.809)" fill="#fff"/>
    </g>
    <g id="Grupo_345" data-name="Grupo 345" transform="translate(2.773 47.333)">
      <path id="Trazado_132" data-name="Trazado 132" d="M189.136,211.89q-1.087,0-1.086,1.712v.228a2.462,2.462,0,0,0,.273,1.278.957.957,0,0,0,1.618-.006,2.4,2.4,0,0,0,.28-1.271V213.6a2.375,2.375,0,0,0-.282-1.273A.9.9,0,0,0,189.136,211.89Z" transform="translate(-149.373 -210.629)" fill="none"/>
      <path id="Trazado_133" data-name="Trazado 133" d="M38,211.89q-1.087,0-1.086,1.712v.228a2.462,2.462,0,0,0,.273,1.278A.957.957,0,0,0,38.8,215.1a2.4,2.4,0,0,0,.28-1.271V213.6a2.375,2.375,0,0,0-.282-1.273A.9.9,0,0,0,38,211.89Z" transform="translate(-29.785 -210.629)" fill="none"/>
      <path id="Trazado_134" data-name="Trazado 134" d="M4.452,207.8a.979.979,0,0,1,.315-.528.888.888,0,0,1,.553-.159,1.11,1.11,0,0,1,.783.225.964.964,0,0,1,.24.712H7.878a2.532,2.532,0,0,0-.361-1.144,2.1,2.1,0,0,0-.864-.779,2.923,2.923,0,0,0-1.332-.28,2.459,2.459,0,0,0-1.334.359,2.369,2.369,0,0,0-.891,1.029,3.664,3.664,0,0,0-.315,1.578v.253a3.788,3.788,0,0,0,.3,1.582,2.255,2.255,0,0,0,.883,1.021,2.615,2.615,0,0,0,1.388.355,3,3,0,0,0,1.3-.267A2.089,2.089,0,0,0,7.529,211a2.18,2.18,0,0,0,.338-1.134H6.337a.831.831,0,0,1-.257.672,1.1,1.1,0,0,1-.726.211,1.033,1.033,0,0,1-.6-.15.868.868,0,0,1-.311-.514,4.174,4.174,0,0,1-.1-1.023v-.259A3.872,3.872,0,0,1,4.452,207.8Z" transform="translate(-2.78 -205.85)" fill="#fff"/>
      <path id="Trazado_135" data-name="Trazado 135" d="M33.413,206.223a2.8,2.8,0,0,0-2.758,0,2.48,2.48,0,0,0-.939,1.038,3.5,3.5,0,0,0-.336,1.578v.219a3.5,3.5,0,0,0,.336,1.578,2.44,2.44,0,0,0,.942,1.035,2.662,2.662,0,0,0,1.388.361,2.625,2.625,0,0,0,1.374-.361,2.466,2.466,0,0,0,.942-1.035,3.474,3.474,0,0,0,.338-1.578v-.219a3.448,3.448,0,0,0-.34-1.578A2.494,2.494,0,0,0,33.413,206.223Zm-.286,2.835a2.423,2.423,0,0,1-.28,1.271.888.888,0,0,1-.8.449.9.9,0,0,1-.818-.443,2.442,2.442,0,0,1-.273-1.278v-.228q0-1.713,1.086-1.712a.9.9,0,0,1,.806.441,2.37,2.37,0,0,1,.282,1.273v.225Z" transform="translate(-23.827 -205.858)" fill="#fff"/>
      <path id="Trazado_136" data-name="Trazado 136" d="M61.661,209.75l-2-3.49H58.12v6.006h1.539v-3.495l2.006,3.495h1.53V206.26H61.661Z" transform="translate(-46.567 -206.174)" fill="#fff"/>
      <path id="Trazado_137" data-name="Trazado 137" d="M87.777,207.144a1.172,1.172,0,0,1,.426-.071.816.816,0,0,1,.568.18.622.622,0,0,1,.2.484H90.5a1.733,1.733,0,0,0-.29-1.008,1.839,1.839,0,0,0-.8-.645,2.9,2.9,0,0,0-1.167-.223,3.336,3.336,0,0,0-1.209.207,1.917,1.917,0,0,0-.839.591,1.415,1.415,0,0,0-.3.9,1.462,1.462,0,0,0,.282.9,2.25,2.25,0,0,0,.724.618,6.477,6.477,0,0,0,1.052.447,4.158,4.158,0,0,1,.645.263.751.751,0,0,1,.29.242.561.561,0,0,1,.075.3.434.434,0,0,1-.171.349.825.825,0,0,1-.53.142,1.648,1.648,0,0,1-.566-.081.609.609,0,0,1-.328-.273,1.076,1.076,0,0,1-.109-.528H85.71a1.869,1.869,0,0,0,.363,1.179,2.115,2.115,0,0,0,.944.691,3.49,3.49,0,0,0,1.244.221,3.239,3.239,0,0,0,1.184-.2,1.7,1.7,0,0,0,.781-.582,1.553,1.553,0,0,0,.276-.929,1.6,1.6,0,0,0-.509-1.221,3.949,3.949,0,0,0-1.5-.8,4.02,4.02,0,0,1-.8-.338.458.458,0,0,1-.263-.388.393.393,0,0,1,.09-.251A.607.607,0,0,1,87.777,207.144Z" transform="translate(-68.398 -205.858)" fill="#fff"/>
      <path id="Trazado_138" data-name="Trazado 138" d="M115.266,210.135a1.083,1.083,0,0,1-.207.737.813.813,0,0,1-.635.23.839.839,0,0,1-.643-.23,1.061,1.061,0,0,1-.215-.737v-3.883H112.02v3.883a2.283,2.283,0,0,0,.3,1.194,1.933,1.933,0,0,0,.841.756,3.25,3.25,0,0,0,2.532,0,1.852,1.852,0,0,0,.825-.754,2.352,2.352,0,0,0,.288-1.2V206.25h-1.539Z" transform="translate(-89.215 -206.167)" fill="#fff"/>
      <path id="Trazado_139" data-name="Trazado 139" d="M140.591,206.26H139.05v6.006h4.014v-1.242h-2.474Z" transform="translate(-110.602 -206.174)" fill="#fff"/>
      <path id="Trazado_140" data-name="Trazado 140" d="M155.36,206.26v1.246h1.745v4.76h1.543v-4.76h1.791V206.26H155.36Z" transform="translate(-123.508 -206.174)" fill="#fff"/>
      <path id="Trazado_141" data-name="Trazado 141" d="M184.553,206.223a2.8,2.8,0,0,0-2.758,0,2.48,2.48,0,0,0-.939,1.038,3.5,3.5,0,0,0-.336,1.578v.219a3.5,3.5,0,0,0,.336,1.578,2.44,2.44,0,0,0,.941,1.035,2.662,2.662,0,0,0,1.388.361,2.625,2.625,0,0,0,1.374-.361,2.466,2.466,0,0,0,.942-1.035,3.474,3.474,0,0,0,.338-1.578v-.219a3.447,3.447,0,0,0-.34-1.578A2.493,2.493,0,0,0,184.553,206.223Zm-.288,2.835a2.423,2.423,0,0,1-.28,1.271.888.888,0,0,1-.8.449.9.9,0,0,1-.818-.443,2.442,2.442,0,0,1-.273-1.278v-.228q0-1.713,1.086-1.712a.9.9,0,0,1,.806.441,2.37,2.37,0,0,1,.282,1.273v.225Z" transform="translate(-143.415 -205.858)" fill="#fff"/>
      <path id="Trazado_142" data-name="Trazado 142" d="M213.725,209.158a1.96,1.96,0,0,0,.263-1.092,1.7,1.7,0,0,0-.282-.99,1.744,1.744,0,0,0-.8-.618,3.264,3.264,0,0,0-1.217-.209H209.27v6.008h1.539v-2.029h.714l1.01,2.029h1.651v-.067l-1.225-2.384A1.9,1.9,0,0,0,213.725,209.158Zm-1.468-.367a.779.779,0,0,1-.568.188h-.883V207.5h.883a.768.768,0,0,1,.562.194.737.737,0,0,1,.2.549A.748.748,0,0,1,212.257,208.791Z" transform="translate(-166.163 -206.167)" fill="#fff"/>
      <path id="Trazado_143" data-name="Trazado 143" d="M235.92,206.26v6.006H240.1v-1.242h-2.645v-1.236h2.232v-1.2h-2.232v-1.083h2.662V206.26h-4.2Z" transform="translate(-187.25 -206.174)" fill="#fff"/>
      <path id="Trazado_144" data-name="Trazado 144" d="M259.807,207.144a1.173,1.173,0,0,1,.426-.071.816.816,0,0,1,.568.18.622.622,0,0,1,.2.484h1.534a1.733,1.733,0,0,0-.29-1.008,1.839,1.839,0,0,0-.8-.645,2.9,2.9,0,0,0-1.167-.223,3.336,3.336,0,0,0-1.209.207,1.917,1.917,0,0,0-.839.591,1.415,1.415,0,0,0-.3.9,1.462,1.462,0,0,0,.282.9,2.25,2.25,0,0,0,.724.618,6.476,6.476,0,0,0,1.052.447,4.159,4.159,0,0,1,.645.263.751.751,0,0,1,.29.242.561.561,0,0,1,.075.3.434.434,0,0,1-.171.349.825.825,0,0,1-.53.142,1.648,1.648,0,0,1-.566-.081.609.609,0,0,1-.328-.273,1.076,1.076,0,0,1-.109-.528H257.74a1.869,1.869,0,0,0,.363,1.179,2.115,2.115,0,0,0,.944.691,3.49,3.49,0,0,0,1.244.221,3.239,3.239,0,0,0,1.184-.2,1.7,1.7,0,0,0,.781-.582,1.553,1.553,0,0,0,.276-.929,1.6,1.6,0,0,0-.509-1.221,3.949,3.949,0,0,0-1.5-.8,4.02,4.02,0,0,1-.8-.338.458.458,0,0,1-.263-.388.393.393,0,0,1,.09-.251A.6.6,0,0,1,259.807,207.144Z" transform="translate(-204.515 -205.858)" fill="#fff"/>
    </g>
  </g>
</svg>
